<svg width="32" height="32" viewBox="0 0 32 32" fill="none" xmlns="http://www.w3.org/2000/svg">
<path fill-rule="evenodd" clip-rule="evenodd" d="M17.8 24.82C17.218 24.938 16.616 25 16 25C11.033 25 7 20.967 7 16C7 11.033 11.033 7 16 7C20.967 7 25 11.033 25 16C25 17.176 24.444 18.283 23.501 18.985C22.557 19.687 21.337 19.901 20.211 19.563C19.39 19.317 18.562 19.069 17.814 18.844C17.16 18.648 16.451 18.777 15.908 19.191C15.364 19.605 15.052 20.254 15.068 20.937C15.068 20.937 15.068 20.939 15.068 20.941C15.088 21.834 15.472 22.681 16.131 23.286C16.893 23.987 17.8 24.82 17.8 24.82Z" stroke-width="2" stroke-miterlimit="1.5" stroke-linecap="round" stroke-linejoin="round"/>
<path d="M17.3019 12.5C18.0707 12.5 18.6939 11.8692 18.6939 11.091C18.6939 10.3128 18.0707 9.68201 17.3019 9.68201C16.5331 9.68201 15.9099 10.3128 15.9099 11.091C15.9099 11.8692 16.5331 12.5 17.3019 12.5Z" fill="black"/>
<path d="M19.9971 15.63C20.7161 15.63 21.2991 15.0399 21.2991 14.312C21.2991 13.5841 20.7161 12.994 19.9971 12.994C19.278 12.994 18.6951 13.5841 18.6951 14.312C18.6951 15.0399 19.278 15.63 19.9971 15.63Z" fill="black"/>
<path d="M12.7549 14C13.5833 14 14.2549 13.3284 14.2549 12.5C14.2549 11.6716 13.5833 11 12.7549 11C11.9265 11 11.2549 11.6716 11.2549 12.5C11.2549 13.3284 11.9265 14 12.7549 14Z" fill="black"/>
<path d="M11.4529 18.266C12.172 18.266 12.7549 17.6759 12.7549 16.948C12.7549 16.2201 12.172 15.63 11.4529 15.63C10.7338 15.63 10.1509 16.2201 10.1509 16.948C10.1509 17.6759 10.7338 18.266 11.4529 18.266Z" fill="black"/>
</svg>
