<svg width="32" height="32" viewBox="0 0 32 32" fill="none" xmlns="http://www.w3.org/2000/svg">
<path fill-rule="evenodd" clip-rule="evenodd" d="M11.6131 9.88C12.1561 9.876 12.6581 9.585 12.9291 9.113C13.1691 8.697 13.4651 8.183 13.7061 7.767C13.9791 7.292 14.4851 7 15.0321 7C15.6181 7 16.3821 7 16.9681 7C17.5151 7 18.0211 7.292 18.2941 7.767C18.5351 8.183 18.8311 8.697 19.0711 9.113C19.3421 9.585 19.8441 9.876 20.3871 9.88C20.8821 9.883 21.4971 9.887 21.9911 9.89C22.5341 9.894 23.0351 10.185 23.3071 10.656C23.6001 11.163 23.9841 11.829 24.2781 12.338C24.5521 12.812 24.5521 13.396 24.2781 13.87C24.0271 14.303 23.7171 14.84 23.4701 15.267C23.2061 15.723 23.1951 16.283 23.4411 16.749C23.6911 17.222 24.0131 17.832 24.2641 18.306C24.5121 18.777 24.4991 19.342 24.2281 19.8C23.9511 20.27 23.5921 20.877 23.3131 21.351C23.0371 21.818 22.5351 22.104 21.9931 22.104C21.5051 22.103 20.8981 22.103 20.4081 22.103C19.8611 22.102 19.3541 22.394 19.0811 22.869C18.8381 23.291 18.5371 23.812 18.2941 24.233C18.0211 24.708 17.5151 25 16.9681 25C16.3821 25 15.6181 25 15.0321 25C14.4851 25 13.9791 24.708 13.7061 24.233C13.4651 23.817 13.1691 23.303 12.9291 22.887C12.6581 22.415 12.1561 22.124 11.6131 22.12C11.1151 22.117 10.4951 22.113 10.0001 22.11C9.4611 22.106 8.9641 21.82 8.6911 21.357C8.4111 20.883 8.0501 20.272 7.7721 19.8C7.5011 19.342 7.4881 18.777 7.7361 18.306C7.9871 17.832 8.3091 17.222 8.5591 16.749C8.8051 16.283 8.7941 15.723 8.5301 15.267C8.2831 14.84 7.9731 14.303 7.7221 13.87C7.4481 13.396 7.4481 12.812 7.7221 12.338C8.0161 11.829 8.4001 11.163 8.6931 10.656C8.9651 10.185 9.4661 9.894 10.0091 9.89C10.5031 9.887 11.1181 9.883 11.6131 9.88V9.88Z" stroke-width="2" stroke-miterlimit="1.5" stroke-linecap="round" stroke-linejoin="round"/>
<path d="M16 18C17.1046 18 18 17.1046 18 16C18 14.8954 17.1046 14 16 14C14.8954 14 14 14.8954 14 16C14 17.1046 14.8954 18 16 18Z" stroke-width="2" stroke-miterlimit="1.5" stroke-linecap="round" stroke-linejoin="round"/>
</svg>
